<svg xmlns="http://www.w3.org/2000/svg" width="1280" height="720" viewBox="0 0 320 180"><g style="fill:#fff;fill-opacity:1"><path d="M16.047 0v-4.328H7.39l8.656-11.313v-3.656H1.844v4.328h8.062L1.375-3.672V0Zm0 0" style="stroke:none" transform="translate(28.914 114.944)scale(1.13417)"/><path d="M17.266 0v-12.703c0-4.531-2.813-6.828-8.203-6.828-3.22 0-5.063.593-6.954 2.672l3.063 3c1-1.141 1.86-1.594 3.703-1.594 2.547 0 3.594.937 3.594 3.047v.953H7.922c-4.484 0-6.594 2.531-6.594 5.594 0 1.703.563 3.265 1.594 4.343C4.062-.375 5.656.188 7.844.188c2.218 0 3.437-.563 4.734-1.86V0Zm-4.797-7.11c0 1.188-.188 1.954-.703 2.438-.86.813-1.703.938-3.032.938-1.89 0-2.78-.891-2.78-2.235 0-1.36.968-2.187 2.702-2.187h3.813zm0 0" style="stroke:none" transform="translate(48.963 114.944)scale(1.13417)"/><path d="M18.5 0v-19.297h-4.812v11.672c0 2.625-1.704 3.516-3.22 3.516-1.515 0-3.187-.891-3.187-3.516v-11.672H2.484v12.328c0 2.11.407 3.938 1.954 5.485C5.516-.406 7.063.219 8.984.219c1.782 0 3.547-.656 4.813-2V0Zm0 0" style="stroke:none" transform="translate(71.36 114.944)scale(1.13417)"/><path d="M11.656-15.078v-3.672H8.094v-2.11c0-1.109.531-1.734 1.672-1.734h1.89v-4.078h-2.75c-3.906 0-5.61 2.781-5.61 5.516v2.406h-2v3.672h2V0h4.798v-15.078zm0 0" style="stroke:none" transform="translate(95.393 114.944)scale(1.13417)"/></g><g style="fill:#fff;fill-opacity:1"><path d="M17.266 0v-12.703c0-4.531-2.813-6.828-8.203-6.828-3.22 0-5.063.593-6.954 2.672l3.063 3c1-1.141 1.86-1.594 3.703-1.594 2.547 0 3.594.937 3.594 3.047v.953H7.922c-4.484 0-6.594 2.531-6.594 5.594 0 1.703.563 3.265 1.594 4.343C4.062-.375 5.656.188 7.844.188c2.218 0 3.437-.563 4.734-1.86V0Zm-4.797-7.11c0 1.188-.188 1.954-.703 2.438-.86.813-1.703.938-3.032.938-1.89 0-2.78-.891-2.78-2.235 0-1.36.968-2.187 2.702-2.187h3.813zm0 0" style="stroke:none" transform="translate(109.066 114.944)scale(1.13417)"/><path d="M18.719 0v-12.344c0-2.11-.407-3.922-1.969-5.469-1.062-1.078-2.625-1.718-4.547-1.718-1.781 0-3.547.672-4.812 2.015v-1.78H2.703V0h4.813v-11.672c0-2.625 1.687-3.515 3.203-3.515s3.187.89 3.187 3.515V0Zm0 0" style="stroke:none" transform="translate(131.463 114.944)scale(1.13417)"/><path d="M17.266 0v-12.703c0-4.531-2.813-6.828-8.203-6.828-3.22 0-5.063.593-6.954 2.672l3.063 3c1-1.141 1.86-1.594 3.703-1.594 2.547 0 3.594.937 3.594 3.047v.953H7.922c-4.484 0-6.594 2.531-6.594 5.594 0 1.703.563 3.265 1.594 4.343C4.062-.375 5.656.188 7.844.188c2.218 0 3.437-.563 4.734-1.86V0Zm-4.797-7.11c0 1.188-.188 1.954-.703 2.438-.86.813-1.703.938-3.032.938-1.89 0-2.78-.891-2.78-2.235 0-1.36.968-2.187 2.702-2.187h3.813zm0 0" style="stroke:none" transform="translate(155.496 114.944)scale(1.13417)"/></g><g style="fill:#fff;fill-opacity:1"><path d="M11.36 0v-4.078H9.61c-1.141 0-1.657-.625-1.657-1.734v-9.266h3.406v-3.672H7.953v-5.703H3.141v5.703H1.109v3.672h2.032v9.562C3.14-2.78 4.813 0 8.734 0Zm0 0" style="stroke:none" transform="translate(27.77 156.186)scale(1.13417)"/><path d="M16.797-17.703c-1.344-1.344-2.672-1.828-4.563-1.828-2.062 0-3.906.968-4.843 2.078v-1.844H2.703V0h4.813v-11.625c0-2.453 1.625-3.562 3.093-3.562 1.188 0 1.813.406 2.563 1.14zm0 0" style="stroke:none" transform="translate(42.534 156.186)scale(1.13417)"/><path d="M16.047 0v-4.328H7.39l8.656-11.313v-3.656H1.844v4.328h8.062L1.375-3.672V0Zm0 0" style="stroke:none" transform="translate(61.618 156.186)scale(1.13417)"/><path d="M18.531-8.156v-2.14c0-5.298-3.031-9.235-8.39-9.235-5 0-8.407 3.562-8.407 9.86 0 7.812 4.375 9.89 8.922 9.89 3.469 0 5.36-1.078 7.313-3.031l-2.922-2.86c-1.219 1.219-2.25 1.813-4.36 1.813-2.703 0-4.218-1.813-4.218-4.297zm-4.734-3.297H6.469c.047-.844.156-1.36.453-2.063.516-1.156 1.578-2 3.219-2 1.625 0 2.687.844 3.203 2 .297.704.422 1.22.453 2.063m0 0" style="stroke:none" transform="translate(81.666 156.186)scale(1.13417)"/><path d="m16.719-2.406-3.25-3.219c-1 1.063-1.86 1.516-3.11 1.516-1.156 0-2.03-.407-2.734-1.266-.75-.922-1.078-2.25-1.078-4.297 0-2.031.328-3.328 1.078-4.25.703-.86 1.578-1.265 2.734-1.265 1.25 0 2.11.437 3.11 1.515l3.25-3.265c-1.703-1.766-3.703-2.594-6.36-2.594-3.843 0-8.625 2.047-8.625 9.86S6.516.218 10.36.218c2.657 0 4.657-.844 6.36-2.625m0 0" style="stroke:none" transform="translate(104.65 156.186)scale(1.13417)"/><path d="M7.516 0v-19.297H2.703V0Zm.03-22.594v-3.937h-4.92v3.937zm0 0" style="stroke:none" transform="translate(124.783 156.186)scale(1.13417)"/><path d="M17.266 0v-12.703c0-4.531-2.813-6.828-8.203-6.828-3.22 0-5.063.593-6.954 2.672l3.063 3c1-1.141 1.86-1.594 3.703-1.594 2.547 0 3.594.937 3.594 3.047v.953H7.922c-4.484 0-6.594 2.531-6.594 5.594 0 1.703.563 3.265 1.594 4.343C4.062-.375 5.656.188 7.844.188c2.218 0 3.437-.563 4.734-1.86V0Zm-4.797-7.11c0 1.188-.188 1.954-.703 2.438-.86.813-1.703.938-3.032.938-1.89 0-2.78-.891-2.78-2.235 0-1.36.968-2.187 2.702-2.187h3.813zm0 0" style="stroke:none" transform="translate(136.317 156.186)scale(1.13417)"/></g><g style="fill:#fff;fill-opacity:1"><path d="M17.203-6.078c0-3.25-1.922-5.297-5.734-5.672l-3.031-.297c-1.704-.14-2-.953-2-1.656 0-.969.812-1.86 2.734-1.86 1.672 0 3.36.297 4.469 1.297l2.968-3C14.75-19 12.234-19.53 9.25-19.53c-3.922 0-7.437 2.156-7.437 6.156 0 3.563 2.14 5.078 5.625 5.406l3.03.297c1.516.156 2.032.813 2.032 1.781 0 1.438-1.734 2-3.406 2-1.469 0-3.547-.218-5.14-1.812L.812-2.563C3.25-.108 5.984.22 9.03.22c4.547 0 8.172-2.031 8.172-6.297m0 0" style="stroke:none" transform="translate(171.968 156.354)scale(1.13417)"/></g><g style="fill:#fff;fill-opacity:1"><path d="M11.36 0v-4.078H9.61c-1.141 0-1.657-.625-1.657-1.734v-9.266h3.406v-3.672H7.953v-5.703H3.141v5.703H1.109v3.672h2.032v9.562C3.14-2.78 4.813 0 8.734 0Zm0 0" style="stroke:none" transform="translate(192.561 156.354)scale(1.13417)"/><path d="M16.797-17.703c-1.344-1.344-2.672-1.828-4.563-1.828-2.062 0-3.906.968-4.843 2.078v-1.844H2.703V0h4.813v-11.625c0-2.453 1.625-3.562 3.093-3.562 1.188 0 1.813.406 2.563 1.14zm0 0" style="stroke:none" transform="translate(207.325 156.354)scale(1.13417)"/></g><g style="fill:#fff;fill-opacity:1"><path d="M18.203-9.672c0-3.484-.453-5.672-2.187-7.484-1.188-1.25-3.141-2.375-6-2.375-2.844 0-4.766 1.125-5.953 2.375-1.735 1.812-2.172 4-2.172 7.484 0 3.516.437 5.703 2.172 7.516C5.25-.891 7.172.219 10.016.219c2.859 0 4.812-1.11 6-2.375 1.734-1.813 2.187-4 2.187-7.516m-4.812 0c0 2-.11 3.703-1.11 4.703-.562.563-1.297.86-2.265.86-.953 0-1.657-.297-2.22-.86-.984-1-1.109-2.703-1.109-4.703s.125-3.672 1.11-4.672c.562-.547 1.266-.844 2.219-.844.968 0 1.703.297 2.265.844 1 1 1.11 2.672 1.11 4.672m0 0" style="stroke:none" transform="translate(225.109 156.354)scale(1.13417)"/><path d="M18.719 0v-12.344c0-2.11-.407-3.922-1.969-5.469-1.062-1.078-2.625-1.718-4.547-1.718-1.781 0-3.547.672-4.812 2.015v-1.78H2.703V0h4.813v-11.672c0-2.625 1.687-3.515 3.203-3.515s3.187.89 3.187 3.515V0Zm0 0" style="stroke:none" transform="translate(247.883 156.354)scale(1.13417)"/><path d="M17.266 0v-12.703c0-4.531-2.813-6.828-8.203-6.828-3.22 0-5.063.593-6.954 2.672l3.063 3c1-1.141 1.86-1.594 3.703-1.594 2.547 0 3.594.937 3.594 3.047v.953H7.922c-4.484 0-6.594 2.531-6.594 5.594 0 1.703.563 3.265 1.594 4.343C4.062-.375 5.656.188 7.844.188c2.218 0 3.437-.563 4.734-1.86V0Zm-4.797-7.11c0 1.188-.188 1.954-.703 2.438-.86.813-1.703.938-3.032.938-1.89 0-2.78-.891-2.78-2.235 0-1.36.968-2.187 2.702-2.187h3.813zm0 0" style="stroke:none" transform="translate(271.916 156.354)scale(1.13417)"/></g><path d="m-13.02 121.52-.96.617-.454-.739 1.111-.425-1-.495.435-.738.939.717-.061-1.082h.889l-.182 1.143.958-.617.465.749-1.12.424 1.01.475-.455.739-.94-.707.071 1.092h-.877zm5.13 0-.959.617-.454-.739 1.11-.425-1-.495.435-.738.939.717-.061-1.082h.89l-.183 1.143.96-.617.463.749-1.12.424 1.01.475-.455.739-.939-.707.07 1.092h-.877zm5.13 0-.959.617-.454-.739 1.11-.425-.998-.495.433-.738.94.717-.062-1.082h.89l-.183 1.143.96-.617.463.749-1.12.424 1.01.475-.455.739-.939-.707.07 1.092h-.877zm0 0" style="fill:#fa4559;fill-opacity:1;fill-rule:nonzero;stroke:none;stroke-width:.333333" transform="translate(90.598 -365.34)scale(3.40252)"/><path d="M-18.25 127.486H2.577V114.25H-18.25Zm.948-12.285h18.93v11.334h-18.93Zm0 0" style="fill:#fa4559;fill-opacity:1;fill-rule:nonzero;stroke:none;stroke-width:.333333" transform="translate(90.598 -365.34)scale(3.40252)"/></svg>