<svg xmlns="http://www.w3.org/2000/svg" width="1280" height="720" viewBox="0 0 320 180"><path d="M172.77 115.177v-.849l1.968-2.617h-1.857v-1.004h3.27v.85l-1.992 2.616h1.992v1.004zm6.625-1.887h-.878c-.4 0-.621.188-.621.506 0 .308.204.514.638.514.306 0 .502-.025.698-.214.12-.112.163-.291.163-.566zm.024 1.887v-.387c-.298.301-.58.43-1.09.43-.502 0-.868-.129-1.131-.394-.238-.25-.367-.61-.367-1.004 0-.713.485-1.296 1.515-1.296h1.048v-.223c0-.49-.238-.704-.826-.704-.426 0-.621.103-.852.37l-.706-.696c.435-.48.86-.617 1.6-.617 1.244 0 1.891.531 1.891 1.578v2.943zm4.827 0v-.411a1.5 1.5 0 0 1-1.107.462c-.442 0-.8-.146-1.047-.395-.358-.359-.451-.78-.451-1.27v-2.856h1.106v2.703c0 .608.383.815.732.815.35 0 .741-.207.741-.815v-2.703h1.107v4.47zm3.567-3.492v3.492h-1.107v-3.492h-.46v-.85h.46v-.556c0-.636.392-1.279 1.294-1.279h.63v.944h-.435c-.263 0-.382.146-.382.402v.49h.817v.849zm3.779 1.605h-.876c-.4 0-.622.188-.622.506 0 .308.204.514.64.514.305 0 .5-.025.697-.214.118-.112.161-.291.161-.566zm.025 1.887v-.387c-.297.301-.578.43-1.088.43-.503 0-.869-.129-1.133-.394-.239-.25-.366-.61-.366-1.004 0-.713.486-1.296 1.515-1.296h1.047v-.223c0-.49-.238-.704-.825-.704-.426 0-.621.103-.852.37l-.707-.696c.435-.48.86-.617 1.602-.617 1.242 0 1.89.531 1.89 1.578v2.943zm4.853 0v-2.703c0-.608-.383-.815-.732-.815-.35 0-.74.207-.74.815v2.703h-1.107v-4.47h1.08v.411c.29-.308.698-.462 1.107-.462.443 0 .8.146 1.047.395.358.36.452.78.452 1.27v2.856zm4.546-1.887h-.877c-.4 0-.622.188-.622.506 0 .308.204.514.64.514.305 0 .5-.025.697-.214.119-.112.162-.291.162-.566zm.024 1.887v-.387c-.297.301-.578.43-1.088.43-.503 0-.869-.129-1.133-.394-.238-.25-.366-.61-.366-1.004 0-.713.486-1.296 1.516-1.296h1.047v-.223c0-.49-.239-.704-.826-.704-.426 0-.622.103-.852.37l-.707-.696c.435-.48.861-.617 1.6-.617 1.244 0 1.891.531 1.891 1.578v2.943zm-26.807 8.419c-.902 0-1.285-.643-1.285-1.278v-2.214h-.469v-.849h.469v-1.32h1.107v1.32h.782v.85h-.782v2.145c0 .257.118.402.382.402h.4v.944zm4.018-3.251c-.17-.172-.315-.266-.588-.266-.34 0-.715.257-.715.823v2.694h-1.107v-4.47h1.082v.43c.212-.258.638-.48 1.115-.48.435 0 .74.112 1.047.42zm1.158 3.251v-.849l1.966-2.617h-1.855v-1.004h3.268v.85l-1.992 2.616h1.992v1.004zm6.827-3.131c-.12-.266-.366-.464-.741-.464s-.621.198-.741.464a1.2 1.2 0 0 0-.102.48h1.685a1.2 1.2 0 0 0-.101-.48m-1.584 1.243c0 .576.35.996.97.996.486 0 .724-.138 1.006-.42l.671.66c-.45.456-.885.704-1.684.704-1.049 0-2.053-.48-2.053-2.291 0-1.459.783-2.281 1.933-2.281 1.234 0 1.932.908 1.932 2.135v.497zm5.558 1.94c-.884 0-1.983-.48-1.983-2.291s1.099-2.281 1.984-2.281c.613 0 1.073.188 1.463.6l-.748.755c-.23-.249-.426-.352-.715-.352a.76.76 0 0 0-.63.292c-.17.214-.246.514-.246.986s.075.781.246.996a.77.77 0 0 0 .63.292c.289 0 .486-.103.715-.352l.748.746c-.39.412-.85.61-1.463.61m2.323-4.523h1.108v4.47h-1.108zm-.017-1.672h1.133v.91h-1.133zm4.605 4.256h-.876c-.4 0-.621.188-.621.505 0 .31.203.515.638.515.306 0 .503-.026.698-.214.12-.112.161-.292.161-.567zm.026 1.886v-.385c-.298.3-.579.428-1.09.428-.502 0-.868-.129-1.132-.394-.239-.249-.366-.61-.366-1.004 0-.712.486-1.296 1.515-1.296h1.047v-.222c0-.49-.238-.705-.825-.705-.426 0-.621.104-.852.37l-.705-.695c.433-.48.859-.617 1.6-.617 1.242 0 1.89.53 1.89 1.578v2.942zm6.668.052c-.698 0-1.328-.078-1.89-.644l.724-.73c.367.37.843.421 1.183.421.383 0 .784-.129.784-.462 0-.224-.12-.378-.469-.413l-.697-.067c-.801-.078-1.295-.43-1.295-1.253 0-.927.809-1.424 1.711-1.424.69 0 1.268.12 1.696.523l-.683.694c-.255-.23-.647-.3-1.03-.3-.442 0-.63.206-.63.429 0 .163.07.351.46.387l.699.067c.876.086 1.319.559 1.319 1.314 0 .986-.835 1.458-1.882 1.458m4.112-.052c-.902 0-1.285-.643-1.285-1.278v-2.214h-.469v-.849h.47v-1.32h1.105v1.32h.784v.85h-.784v2.145c0 .257.12.402.384.402h.4v.944zm4.017-3.251c-.169-.172-.313-.266-.587-.266-.34 0-.715.257-.715.823v2.694h-1.107v-4.47h1.081v.43c.214-.258.64-.48 1.116-.48.435 0 .741.112 1.047.42zm3.407-.069a.7.7 0 0 0-.521-.197.67.67 0 0 0-.51.197c-.23.232-.256.619-.256 1.08 0 .464.026.859.257 1.09.126.13.289.199.509.199a.7.7 0 0 0 .52-.198c.23-.232.256-.627.256-1.09 0-.462-.026-.85-.255-1.081m.859 2.823c-.272.292-.724.55-1.38.55s-1.098-.258-1.37-.55c-.4-.42-.503-.927-.503-1.742 0-.806.103-1.313.503-1.732.272-.293.715-.55 1.37-.55s1.108.257 1.38.55c.4.42.503.926.503 1.732 0 .815-.103 1.321-.503 1.742m4.137.497v-2.701c0-.61-.383-.816-.732-.816-.35 0-.741.206-.741.816v2.701h-1.107v-4.47h1.081v.413c.29-.31.7-.463 1.107-.463.442 0 .8.145 1.048.394.357.36.45.78.45 1.27v2.856zm4.545-1.886h-.876c-.401 0-.622.188-.622.505 0 .31.204.515.639.515.306 0 .501-.026.698-.214.118-.112.161-.292.161-.567zm.026 1.886v-.385c-.298.3-.58.428-1.09.428-.502 0-.868-.129-1.132-.394-.239-.249-.366-.61-.366-1.004 0-.712.485-1.296 1.515-1.296h1.047v-.222c0-.49-.238-.705-.825-.705-.426 0-.621.104-.852.37l-.707-.695c.435-.48.86-.617 1.6-.617 1.244 0 1.891.53 1.891 1.578v2.942zm0 0" style="fill:#fff;fill-opacity:1;fill-rule:nonzero;stroke:none;stroke-width:.333333" transform="translate(-451.443 -293.522)scale(3.28733)"/><path d="m151.67 117.827-1.04.673-.492-.806 1.204-.464-1.083-.54.47-.805 1.018.783-.065-1.18h.963l-.197 1.246 1.04-.673.504.817-1.216.463 1.095.518-.492.806-1.018-.773.076 1.193h-.953zm5.564 0-1.04.673-.492-.806 1.203-.464-1.083-.54.471-.805 1.018.783-.066-1.18h.963l-.196 1.246 1.039-.673.504.817-1.215.463 1.094.518-.493.806-1.018-.773.077 1.193h-.952zm5.563 0-1.04.673-.493-.806 1.205-.464-1.084-.54.47-.805 1.019.783-.065-1.18h.962l-.197 1.246 1.04-.673.504.817-1.214.463 1.093.518-.492.806-1.018-.773.077 1.193h-.953zm0 0" style="fill:#fa4559;fill-opacity:1;fill-rule:nonzero;stroke:none;stroke-width:.333333" transform="translate(-451.443 -293.522)scale(3.28733)"/><path d="M147.029 123.297h20.527v-12.363h-20.527zm21.556 1.036H146v-14.436h22.585zm0 0" style="fill:#fa4559;fill-opacity:1;fill-rule:nonzero;stroke:none;stroke-width:.333333" transform="translate(-451.443 -293.522)scale(3.28733)"/></svg>