<svg xmlns="http://www.w3.org/2000/svg" viewBox="0 0 698.25 178.93"><defs><style>.cls-1{fill:#fff}.cls-2{fill:#fa455b}</style></defs><g id="Layer_2" data-name="Layer 2"><g id="Layer_1-2" data-name="Layer 1"><path d="M0 177.45v-27.68L75.13 32.13H3.21V1.48h112.46v27.19L40.29 146.8h75.38v30.65ZM633 178.93c-26.7 0-47-5.68-64.26-23.23L591 133.46c11.12 11.12 26.2 14.83 42.51 14.83 20.27 0 31.14-7.66 31.14-21.75 0-6.18-1.73-11.37-5.44-14.83-3.46-3.21-7.41-4.94-15.57-6.18l-21.25-3c-15.08-2.23-26.2-6.92-34.11-14.59-8.4-8.4-12.6-19.77-12.6-34.6C575.67 22 598.9 0 637 0c24.22 0 41.77 5.93 56.84 20.51L672.05 42C660.93 31.39 647.59 29.9 636 29.9c-18.29 0-27.18 10.14-27.18 22.25a17 17 0 0 0 5.18 12.6c3.46 3.21 9.14 5.93 16.31 6.92l20.76 3c16.06 2.22 26.2 6.67 33.61 13.59 9.39 8.9 13.59 21.75 13.59 37.32-.02 34.08-28.44 53.35-65.27 53.35M354.27 178.93c-28.67 0-55.61-15.07-56.1-51.9h32.12c.5 15.82 11.37 23 24 23 13.84 0 23.73-8.65 23.73-24.47 0-14.58-8.9-24.22-24.72-24.22h-4.7V73.4h4.7c15.57 0 22.24-9.64 22.24-22 0-14.83-9.88-22.49-21.5-22.49-12.11 0-21 7.91-21.75 21.25h-32.15C300.88 18.78 324.36 0 354 0c31.14 0 53.63 20.76 53.63 50.42 0 19-8.65 29.9-20.26 36.08 12.6 6.67 22.73 18.78 22.73 40 .02 35.13-25.68 52.43-55.83 52.43" class="cls-1"/><path d="M183.12 101.92 159.64 117l-11.13-18 27.19-10.43-24.47-12.11 10.63-18 23 17.55-1.49-26.45h21.75l-4.45 27.93 23.48-15.08 11.37 18.29L208.08 91l24.72 11.62-11.13 18-23-17.3 1.73 26.69h-21.49ZM481.5 101.92 458 117l-11.1-18 27.18-10.38-24.46-12.16 10.62-18 23 17.55-1.48-26.45h21.74l-4.45 27.93 23.48-15.08 11.37 18.25L506.46 91l24.72 11.62-11.12 18-23-17.3 1.73 26.69H477.3Z" class="cls-2"/></g></g></svg>