<svg xmlns="http://www.w3.org/2000/svg" width="227" height="33"><g fill="none" fill-rule="nonzero"><path fill="#FFF" d="M0 23.767V21.27l5.774-7.693H.32v-2.95h9.605v2.496L4.09 20.817H9.94v2.95zM19.53 23.767v-1.134a3.94 3.94 0 0 1-3.17 1.265 4.42 4.42 0 0 1-3.326-1.162 4.24 4.24 0 0 1-1.07-2.95c0-2.097 1.424-3.809 4.444-3.809h3.081v-.653c0-1.437-.681-2.062-2.427-2.062a2.78 2.78 0 0 0-2.501 1.086l-2.045-2.062c1.274-1.375 2.522-1.815 4.696-1.815 3.654 0 5.556 1.567 5.556 4.64v8.656zm-.075-5.548h-2.577c-1.179 0-1.826.557-1.826 1.492s.6 1.512 1.874 1.512a2.56 2.56 0 0 0 2.045-.632 2.17 2.17 0 0 0 .477-1.664zM33.702 23.767v-1.21a4.42 4.42 0 0 1-3.244 1.375 4.23 4.23 0 0 1-3.082-1.155 4.9 4.9 0 0 1-1.322-3.733v-8.415h3.258v7.934c0 1.787 1.125 2.392 2.148 2.392 1.022 0 2.174-.605 2.174-2.392v-7.934h3.245v13.138zM44.18 13.503v10.264H40.9V13.503h-1.362V11H40.9V9.37a3.6 3.6 0 0 1 1.063-2.743 3.54 3.54 0 0 1 2.74-1.017h1.848v2.75h-1.247a1.02 1.02 0 0 0-.853.31c-.22.233-.32.555-.272.873V11h2.4v2.496zM55.36 23.767v-1.134c-.822.891-2.001 1.357-3.205 1.265a4.42 4.42 0 0 1-3.326-1.162 4.24 4.24 0 0 1-1.07-2.95c0-2.097 1.424-3.809 4.451-3.809h3.074v-.653c0-1.437-.681-2.062-2.426-2.062a2.78 2.78 0 0 0-2.502 1.086l-2.045-2.062c1.275-1.375 2.522-1.815 4.697-1.815 3.653 0 5.555 1.567 5.555 4.64v8.656zm-.076-5.548h-2.576c-1.173 0-1.827.557-1.827 1.492s.6 1.512 1.874 1.512a2.56 2.56 0 0 0 2.045-.632 2.14 2.14 0 0 0 .478-1.664zM69.613 23.767v-7.954c0-1.788-1.131-2.4-2.154-2.4s-2.174.612-2.174 2.4v7.954h-3.252V10.629h3.177v1.21a4.45 4.45 0 0 1 3.251-1.375 4.22 4.22 0 0 1 3.075 1.162 4.9 4.9 0 0 1 1.322 3.733v8.408zM83.036 23.767v-1.134a3.92 3.92 0 0 1-3.197 1.265 4.42 4.42 0 0 1-3.327-1.162 4.22 4.22 0 0 1-1.077-2.95c0-2.097 1.425-3.809 4.451-3.809h3.075v-.653c0-1.437-.682-2.062-2.427-2.062a2.78 2.78 0 0 0-2.495 1.086l-2.045-2.062c1.275-1.375 2.529-1.815 4.703-1.815 3.647 0 5.55 1.567 5.55 4.64v8.656zm-.075-5.548h-2.577c-1.173 0-1.82.557-1.82 1.492s.6 1.512 1.874 1.512c.741.1 1.488-.13 2.045-.632a2.14 2.14 0 0 0 .478-1.664zM161.402 23.918c-2.045 0-3.9-.227-5.55-1.89l2.128-2.145a4.69 4.69 0 0 0 3.47 1.237c1.131 0 2.304-.378 2.304-1.375 0-.653-.348-1.107-1.364-1.21l-2.045-.2c-2.345-.226-3.797-1.264-3.797-3.684 0-2.75 2.372-4.187 5.024-4.187 2.045 0 3.729.357 4.976 1.54l-1.997 2.062a4.5 4.5 0 0 0-3.027-.88c-1.302 0-1.854.605-1.854 1.258 0 .482.205 1.038 1.364 1.135l2.045.206c2.576.247 3.878 1.636 3.878 3.857-.027 2.894-2.48 4.276-5.555 4.276M173.481 23.767a3.51 3.51 0 0 1-2.707-1.03 3.58 3.58 0 0 1-1.035-2.724v-6.51h-1.364V11h1.364V7.122h3.251V11h2.298v2.496h-2.298v6.31c0 .757.348 1.183 1.125 1.183h1.173v2.75zM185.281 14.21a2.17 2.17 0 0 0-1.725-.783c-1.002 0-2.1.756-2.1 2.427v7.913h-3.25V10.629h3.176v1.265a4.39 4.39 0 0 1 3.272-1.417 3.92 3.92 0 0 1 3.074 1.238zM197.81 22.31a5.43 5.43 0 0 1-4.056 1.608 5.32 5.32 0 0 1-4.022-1.609c-1.179-1.237-1.479-2.75-1.479-5.122s.3-3.856 1.48-5.094a5.3 5.3 0 0 1 4.021-1.616 5.38 5.38 0 0 1 4.056 1.616c1.173 1.238 1.473 2.75 1.473 5.095s-.3 3.884-1.473 5.121m-2.529-8.299c-.406-.4-.96-.612-1.527-.584a2 2 0 0 0-1.5.584c-.681.688-.75 1.815-.75 3.177 0 1.36.076 2.523.75 3.203.399.396.942.605 1.5.578.567.03 1.12-.18 1.527-.578.682-.687.75-1.842.75-3.203 0-1.362-.075-2.496-.75-3.177M209.958 23.767v-7.954c0-1.788-1.125-2.4-2.147-2.4-1.023 0-2.175.612-2.175 2.4v7.954h-3.252V10.629h3.17v1.21a4.45 4.45 0 0 1 3.252-1.375 4.24 4.24 0 0 1 3.081 1.162 4.9 4.9 0 0 1 1.323 3.733v8.408zM223.387 23.767v-1.134c-.821.891-2 1.357-3.204 1.265a4.42 4.42 0 0 1-3.326-1.162 4.24 4.24 0 0 1-1.07-2.95c0-2.097 1.424-3.809 4.45-3.809h3.075v-.653c0-1.437-.682-2.062-2.427-2.062a2.78 2.78 0 0 0-2.501 1.086l-2.046-2.062c1.275-1.375 2.523-1.815 4.697-1.815 3.654 0 5.556 1.567 5.556 4.64v8.656zm-.075-5.548h-2.577c-1.179 0-1.827.557-1.827 1.492s.6 1.512 1.875 1.512a2.56 2.56 0 0 0 2.045-.632 2.17 2.17 0 0 0 .477-1.664z"/><path fill="#FA455B" d="m107.903 18.123-2.379 1.54-1.124-1.843 2.726-1.059-2.481-1.23 1.077-1.843 2.325 1.788-.15-2.695h2.201l-.45 2.846 2.373-1.533 1.152 1.863-2.74 1.059 2.501 1.182-1.138 1.843-2.325-1.767.17 2.75h-2.174zM120.61 18.123l-2.38 1.54-1.124-1.843 2.727-1.059-2.475-1.23 1.07-1.843 2.325 1.788-.095-2.695h2.201l-.45 2.846 2.339-1.533 1.145 1.863-2.774 1.059 2.501 1.182-1.124 1.843-2.325-1.767.17 2.75h-2.16zM133.316 18.123l-2.379 1.54-1.124-1.843 2.726-1.059-2.474-1.23 1.07-1.843 2.325 1.788-.15-2.695h2.202l-.45 2.846 2.379-1.533 1.145 1.863-2.775 1.059 2.502 1.182-1.125 1.843-2.324-1.767.177 2.75h-2.181z"/><path fill="#FA455B" d="M146.562 33H94.945V0h51.617zm-49.238-2.365h46.886V2.365H97.296z"/></g></svg>