<svg xmlns="http://www.w3.org/2000/svg" viewBox="0 0 990.29 187.4"><defs><style>.cls-1{fill:#fff}.cls-2{fill:#fa455b}</style></defs><g id="Layer_2" data-name="Layer 2"><g id="Layer_1-2" data-name="Layer 1"><path d="M334.72 75.49V65.11l24.22-32h-22.86V20.87h40.26v10.38l-24.53 32h24.53v12.24ZM416.6 75.49v-4.72c-3.67 3.67-7.13 5.25-13.42 5.25s-10.7-1.58-13.95-4.83a17.52 17.52 0 0 1-4.51-12.27c0-8.7 6-15.83 18.67-15.83h12.89v-2.72c0-6-2.93-8.6-10.17-8.6-5.24 0-7.65 1.26-10.48 4.51l-8.7-8.5c5.34-5.87 10.59-7.54 19.71-7.54 15.31 0 23.27 6.5 23.27 19.29v36Zm-.32-23.07h-10.79c-4.93 0-7.66 2.31-7.66 6.19s2.52 6.29 7.86 6.29c3.78 0 6.19-.31 8.6-2.62 1.47-1.36 2-3.56 2-6.92ZM476 75.49v-5a18.7 18.7 0 0 1-13.63 5.66c-5.45 0-9.85-1.78-12.89-4.82-4.41-4.41-5.56-9.54-5.56-15.52V20.87h13.63v33c0 7.45 4.72 10 9 10s9.12-2.51 9.12-10v-33h13.63v54.62ZM520 32.82v42.67h-13.66V32.82h-5.66V22.44h5.66v-6.82c0-7.76 4.82-15.62 15.94-15.62H530v11.53h-5.34c-3.25 0-4.72 1.78-4.72 4.93v6H530v10.36ZM566.83 75.49v-4.72c-3.66 3.67-7.12 5.25-13.42 5.25s-10.69-1.58-13.94-4.83A17.52 17.52 0 0 1 535 58.92c0-8.7 6-15.83 18.66-15.83h12.9v-2.72c0-6-2.93-8.6-10.17-8.6-5.24 0-7.65 1.26-10.48 4.51l-8.71-8.5c5.35-5.87 10.59-7.54 19.72-7.54 15.3 0 23.27 6.5 23.27 19.29v36Zm-.31-23.07h-10.8c-4.93 0-7.65 2.31-7.65 6.19s2.51 6.29 7.86 6.29c3.78 0 6.19-.31 8.6-2.62 1.47-1.36 2-3.56 2-6.92ZM626.59 75.49v-33c0-7.44-4.72-10-9-10s-9.13 2.52-9.13 10v33h-13.64V20.87h13.32v5a18.68 18.68 0 0 1 13.63-5.66c5.45 0 9.85 1.78 12.9 4.82 4.4 4.4 5.55 9.54 5.55 15.52v34.94ZM682.89 75.49v-4.72c-3.67 3.67-7.13 5.25-13.42 5.25s-10.69-1.58-13.94-4.83A17.48 17.48 0 0 1 651 58.92c0-8.7 6-15.83 18.66-15.83h12.9v-2.72c0-6-2.94-8.6-10.17-8.6-5.24 0-7.66 1.26-10.49 4.51l-8.7-8.5c5.35-5.87 10.59-7.54 19.71-7.54 15.31 0 23.28 6.5 23.28 19.29v36Zm-.31-23.07h-10.8c-4.93 0-7.65 2.31-7.65 6.19s2.51 6.29 7.86 6.29c3.77 0 6.19-.31 8.6-2.62 1.47-1.36 2-3.56 2-6.92ZM352.72 178.39c-11.11 0-15.83-7.86-15.83-15.62v-27.05h-5.77v-10.38h5.77v-16.15h13.63v16.15h9.65v10.38h-9.65v26.21c0 3.15 1.47 4.93 4.72 4.93h4.93v11.53ZM402.21 138.65c-2.1-2.09-3.88-3.25-7.24-3.25-4.19 0-8.81 3.15-8.81 10.07v32.92h-13.63v-54.63h13.32V129c2.62-3.15 7.86-5.87 13.73-5.87 5.35 0 9.13 1.36 12.9 5.13ZM416.46 178.39V168l24.22-32h-22.85v-12.24h40.26v10.39l-24.54 32h24.54v12.27ZM481 155.32c0 7 4.3 12.17 12 12.17 6 0 8.91-1.68 12.37-5.14l8.28 8.07c-5.55 5.56-10.9 8.6-20.76 8.6-12.89 0-25.27-5.87-25.27-28 0-17.82 9.65-27.88 23.8-27.88 15.21 0 23.81 11.11 23.81 26.1v6.08Zm19.51-15.2a10.19 10.19 0 0 0-18.25 0A15.3 15.3 0 0 0 481 146h20.77a15.1 15.1 0 0 0-1.22-5.88ZM549.5 179c-10.9 0-24.43-5.87-24.43-28s13.53-27.88 24.43-27.88c7.55 0 13.21 2.3 18 7.33l-9.23 9.23c-2.83-3-5.24-4.3-8.81-4.3a9.44 9.44 0 0 0-7.75 3.57c-2.1 2.62-3 6.29-3 12.05s.94 9.55 3 12.17a9.44 9.44 0 0 0 7.75 3.56c3.57 0 6-1.26 8.81-4.3l9.23 9.12c-4.79 5.06-10.45 7.45-18 7.45M577.91 114.43v-11.11h14v11.11Zm.21 64v-54.67h13.63v54.63ZM635 178.39v-4.72c-3.67 3.67-7.13 5.25-13.42 5.25s-10.7-1.58-13.95-4.83a17.52 17.52 0 0 1-4.51-12.27c0-8.7 6-15.83 18.67-15.83h12.9v-2.72c0-6-2.94-8.6-10.18-8.6-5.24 0-7.65 1.26-10.48 4.51l-8.7-8.5c5.35-5.87 10.59-7.54 19.71-7.54 15.31 0 23.28 6.49 23.28 19.29v36Zm-.31-23.07h-10.8c-4.93 0-7.66 2.31-7.66 6.19s2.52 6.29 7.87 6.29c3.77 0 6.18-.31 8.59-2.62 1.47-1.36 2-3.57 2-6.92ZM717.08 179c-8.6 0-16.36-.94-23.28-7.86l8.91-8.92c4.51 4.51 10.38 5.14 14.57 5.14 4.72 0 9.65-1.57 9.65-5.66 0-2.73-1.47-4.61-5.77-5l-8.59-.84c-9.86-.95-15.94-5.24-15.94-15.31 0-11.32 10-17.4 21.08-17.4 8.49 0 15.62 1.46 20.86 6.39l-8.39 8.46c-3.14-2.83-8-3.67-12.68-3.67-5.46 0-7.76 2.52-7.76 5.25 0 2 .83 4.3 5.66 4.71l8.59.84c10.8 1 16.26 6.82 16.26 16 0 12.12-10.25 17.87-23.17 17.87M767.72 178.39c-11.12 0-15.84-7.86-15.84-15.62v-27.05h-5.76v-10.38h5.76v-16.15h13.63v16.15h9.65v10.38h-9.65v26.21c0 3.15 1.47 4.93 4.72 4.93h4.93v11.53ZM817.2 138.65c-2.1-2.09-3.88-3.25-7.24-3.25-4.19 0-8.8 3.15-8.8 10.07v32.92h-13.63v-54.63h13.31V129c2.62-3.15 7.87-5.87 13.74-5.87 5.34 0 9.12 1.36 12.89 5.13ZM869.72 172.31c-3.35 3.56-8.91 6.71-17 6.71s-13.53-3.15-16.88-6.71c-4.93-5.14-6.19-11.32-6.19-21.29s1.26-16 6.19-21.17c3.35-3.57 8.8-6.71 16.88-6.71s13.63 3.14 17 6.71c4.93 5.13 6.19 11.32 6.19 21.17s-1.26 16.15-6.19 21.29m-10.59-34.5a8.62 8.62 0 0 0-6.39-2.41 8.37 8.37 0 0 0-6.29 2.41c-2.84 2.84-3.15 7.55-3.15 13.21s.31 10.49 3.15 13.32a8.37 8.37 0 0 0 6.29 2.41 8.62 8.62 0 0 0 6.39-2.41c2.83-2.83 3.15-7.65 3.15-13.32s-.28-10.37-3.15-13.21M920.68 178.39v-33c0-7.44-4.72-10-9-10s-9.12 2.52-9.12 10v33h-13.65v-54.63h13.31v5a18.68 18.68 0 0 1 13.63-5.66c5.46 0 9.86 1.78 12.9 4.82 4.4 4.4 5.56 9.54 5.56 15.52v34.91ZM977 178.39v-4.72c-3.67 3.67-7.13 5.25-13.42 5.25s-10.69-1.58-13.94-4.83a17.48 17.48 0 0 1-4.51-12.27c0-8.7 6-15.83 18.66-15.83h12.9v-2.72c0-6-2.94-8.6-10.17-8.6-5.24 0-7.66 1.26-10.49 4.51l-8.7-8.5c5.35-5.87 10.59-7.54 19.71-7.54 15.31 0 23.28 6.49 23.28 19.29v36Zm-.31-23.07h-10.8c-4.93 0-7.65 2.31-7.65 6.19s2.51 6.29 7.86 6.29c3.77 0 6.19-.31 8.6-2.62 1.47-1.36 2-3.57 2-6.92Z" class="cls-1"/><path d="M69.84 107.87 57 116.1l-6-9.85 14.83-5.66L52.45 94l5.8-9.85 12.53 9.58L70 79.29h11.84l-2.43 15.23 12.81-8.22 6.2 10-15 5.66 13.48 6.34-6.07 9.84-12.53-9.44.94 14.56H67.55ZM138.36 107.87l-12.81 8.23-6.07-9.85 14.83-5.66L121 94l5.79-9.85 12.54 9.58-.81-14.43h11.87l-2.43 15.23 12.81-8.22 6.2 10-15 5.66 13.48 6.34-6.07 9.84-12.54-9.44 1 14.56h-11.77ZM206.88 107.87l-12.81 8.23-6.07-9.85 14.83-5.66L189.48 94l5.8-9.85 12.54 9.58-.82-14.44h11.87l-2.43 15.23 12.81-8.22 6.2 10-15 5.66 13.55 6.32-6.07 9.84-12.54-9.44.94 14.56h-11.75Z" class="cls-2"/><path d="M278.15 187.4H0V11h278.15ZM12.66 174.73h252.83V23.63H12.66Z" class="cls-2"/></g></g></svg>