<svg xmlns="http://www.w3.org/2000/svg" viewBox="0 0 866.86 438.22"><defs><style>.cls-1{fill:#fff}.cls-2{fill:#fa455b}</style></defs><g id="Layer_2" data-name="Layer 2"><g id="Layer_1-2" data-name="Layer 1"><path d="M6.47 301.19V287.5l31.94-42.17H8.27v-16.18h53.09v13.69L29 285h32.36v16.18ZM114.45 301.19V295c-4.84 4.84-9.4 6.91-17.7 6.91s-14.1-2.07-18.39-6.36c-3.87-4-6-9.82-6-16.18 0-11.47 7.89-20.87 24.62-20.87h17v-3.6c0-7.88-3.87-11.34-13.41-11.34-6.91 0-10.09 1.66-13.82 5.95l-11.48-11.2c7.05-7.74 14-10 26-10 20.19 0 30.7 8.58 30.7 25.44v47.43Zm-.45-30.42H99.79c-6.5 0-10.09 3-10.09 8.16s3.32 8.3 10.37 8.3c5 0 8.15-.42 11.34-3.46 1.93-1.8 2.62-4.7 2.62-9.13ZM192.83 301.19v-6.64a24.64 24.64 0 0 1-18 7.47c-7.19 0-13-2.35-17-6.36-5.8-5.81-7.32-12.58-7.32-20.46v-46h18v43.56c0 9.81 6.22 13.13 11.89 13.13s12-3.32 12-13.13v-43.61h18v72ZM250.76 244.92v56.27h-18v-56.27h-7.46v-13.69h7.46v-9c0-10.23 6.36-20.6 21-20.6H264v15.21h-7c-4.29 0-6.22 2.35-6.22 6.5v7.88H264v13.69ZM312.56 301.19V295c-4.84 4.84-9.4 6.91-17.7 6.91s-14.1-2.07-18.39-6.36c-3.87-4-6-9.82-6-16.18 0-11.47 7.89-20.87 24.62-20.87h17v-3.6c0-7.88-3.87-11.34-13.41-11.34-6.91 0-10.09 1.66-13.83 5.95l-11.47-11.2c7.05-7.74 14-10 26-10 20.19 0 30.7 8.58 30.7 25.44v47.43Zm-.42-30.42H297.9c-6.5 0-10.09 3-10.09 8.16s3.32 8.3 10.37 8.3c5 0 8.15-.42 11.33-3.46 1.94-1.8 2.63-4.7 2.63-9.13ZM391.36 301.19v-43.55c0-9.82-6.22-13.14-11.89-13.14s-12 3.32-12 13.14v43.55h-18v-72H367v6.64a24.65 24.65 0 0 1 18-7.47c7.19 0 13 2.35 17 6.37 5.81 5.8 7.33 12.58 7.33 20.46v46ZM465.6 301.19V295c-4.85 4.84-9.41 6.91-17.7 6.91s-14.11-2.07-18.39-6.36c-3.87-4-5.95-9.82-5.95-16.18 0-11.47 7.88-20.87 24.61-20.87h17v-3.6c0-7.88-3.87-11.34-13.41-11.34-6.92 0-10.1 1.66-13.83 5.95l-11.47-11.2c7-7.74 14-10 26-10 20.19 0 30.69 8.58 30.69 25.44v47.43Zm-.42-30.42h-14.24c-6.5 0-10.1 3-10.1 8.16s3.32 8.3 10.37 8.3c5 0 8.16-.42 11.34-3.46 1.94-1.8 2.63-4.7 2.63-9.13ZM30.22 436.87c-14.66 0-20.88-10.37-20.88-20.6V380.6h-7.6v-13.69h7.6v-21.29h18v21.29H40v13.69H27.32v34.57c0 4.14 1.93 6.5 6.22 6.5H40v15.2ZM95.47 384.47c-2.76-2.76-5.11-4.28-9.54-4.28-5.53 0-11.61 4.14-11.61 13.27v43.41h-18v-72H73.9v6.91C77.36 367.6 84.27 364 92 364c7 0 12 1.8 17 6.77ZM114.27 436.87v-13.68L146.21 381h-30.15v-16.16h53.1v13.69L136.8 420.7h32.36v16.17ZM199.43 406.45c0 9.27 5.67 16.05 15.76 16.05 7.88 0 11.75-2.22 16.31-6.78l10.93 10.65c-7.33 7.32-14.38 11.33-27.38 11.33-17 0-33.32-7.74-33.32-36.91 0-23.51 12.72-36.78 31.39-36.78 20 0 31.38 14.66 31.38 34.43v8Zm25.71-20c-1.93-4.29-5.94-7.47-12-7.47s-10.1 3.18-12 7.47a19.6 19.6 0 0 0-1.66 7.74h27.32a19.8 19.8 0 0 0-1.66-7.78ZM289.71 437.7c-14.39 0-32.22-7.74-32.22-36.91S275.32 364 289.71 364c10 0 17.42 3 23.78 9.68l-12.17 12.17c-3.73-4-6.92-5.67-11.61-5.67a12.48 12.48 0 0 0-10.24 4.7c-2.76 3.45-4 8.29-4 15.9s1.25 12.58 4 16a12.46 12.46 0 0 0 10.24 4.71c4.69 0 7.88-1.66 11.61-5.67l12.17 12c-6.36 6.7-13.83 9.88-23.78 9.88M327.17 352.53v-14.65h18.38v14.65Zm.27 84.34v-72h18v72ZM402.37 436.87v-6.22c-4.84 4.84-9.4 6.91-17.69 6.91s-14.11-2.07-18.39-6.35c-3.88-4-6-9.82-6-16.18 0-11.48 7.88-20.88 24.61-20.88h17v-3.59c0-7.89-3.87-11.34-13.41-11.34-6.92 0-10.1 1.66-13.83 5.94L363.24 374c7.06-7.74 14-9.95 26-9.95 20.18 0 30.69 8.57 30.69 25.44v47.42Zm-.37-30.42h-14.28c-6.5 0-10.1 3.05-10.1 8.16s3.32 8.3 10.37 8.3c5 0 8.16-.41 11.34-3.46 1.94-1.8 2.63-4.7 2.63-9.12ZM506.58 438.22c-11.34 0-21.57-1.24-30.69-10.37l11.75-11.75c5.95 5.95 13.69 6.78 19.22 6.78 6.22 0 12.72-2.08 12.72-7.47 0-3.59-1.94-6.08-7.61-6.64l-11.33-1.1c-13-1.25-21-6.92-21-20.19 0-14.93 13.14-23 27.79-23 11.2 0 20.6 1.94 27.51 8.43l-11.06 11.2c-4.14-3.73-10.51-4.84-16.73-4.84-7.19 0-10.23 3.32-10.23 6.92 0 2.62 1.11 5.67 7.47 6.22l11.34 1.1c14.24 1.39 21.43 9 21.43 21.16-.02 15.95-13.57 23.55-30.58 23.55M573.35 437.39c-14.65 0-20.87-10.37-20.87-20.6v-35.67h-7.61v-13.69h7.61v-21.29h18v21.29h12.72v13.69h-12.75v34.57c0 4.14 1.93 6.5 6.22 6.5h6.5v15.2ZM638.61 385c-2.77-2.76-5.12-4.28-9.54-4.28-5.53 0-11.62 4.14-11.62 13.27v43.41h-18v-72H617v6.91c3.45-4.14 10.37-7.74 18.11-7.74 7.05 0 12 1.8 17 6.77ZM707.87 429.37c-4.42 4.7-11.75 8.85-22.4 8.85s-17.83-4.15-22.26-8.85c-6.5-6.77-8.16-14.93-8.16-28.06s1.66-21.16 8.16-27.93c4.43-4.7 11.61-8.85 22.26-8.85s18 4.15 22.4 8.85c6.5 6.77 8.16 14.93 8.16 27.93s-1.66 21.29-8.16 28.06m-14-45.48a11.33 11.33 0 0 0-8.43-3.18 11 11 0 0 0-8.29 3.18c-3.74 3.73-4.15 9.95-4.15 17.42s.41 13.82 4.15 17.56a11 11 0 0 0 8.29 3.18 11.37 11.37 0 0 0 8.43-3.18c3.74-3.74 4.15-10.1 4.15-17.56s-.38-13.69-4.12-17.42ZM775.06 437.39v-43.55c0-9.82-6.23-13.13-11.9-13.13s-12 3.31-12 13.13v43.55h-18v-72h17.56V372a24.65 24.65 0 0 1 18-7.47c7.19 0 13 2.35 17 6.36 5.81 5.81 7.33 12.58 7.33 20.46v46ZM849.3 437.39v-6.22c-4.84 4.84-9.41 6.92-17.7 6.92s-14.11-2.08-18.39-6.36c-3.87-4-6-9.82-6-16.18 0-11.48 7.89-20.88 24.62-20.88h17v-3.59c0-7.89-3.87-11.34-13.41-11.34-6.91 0-10.09 1.66-13.83 5.94l-11.47-11.2c7.05-7.74 14-10 26-10 20.19 0 30.7 8.57 30.7 25.44v47.42Zm-.42-30.39h-14.24c-6.5 0-10.09 3-10.09 8.15s3.31 8.3 10.37 8.3c5 0 8.15-.41 11.33-3.46 1.94-1.79 2.63-4.7 2.63-9.12Z" class="cls-1"/><path d="m58.65 81.38-10.76 6.9L42.8 80l12.45-4.76L44 69.72l4.87-8.27 10.53 8-.68-12.12h10l-2 12.8 10.75-6.91 5.21 8.38-12.6 4.8 11.33 5.32-5.1 8.28-10.53-7.94.8 12.22h-9.85ZM116.19 81.38l-10.76 6.9-5.09-8.28 12.45-4.76-11.21-5.54 4.87-8.27 10.53 8-.68-12.12h10l-2 12.8 10.7-6.85 5.21 8.38-12.59 4.76L139 81.72 133.85 90l-10.53-7.92.79 12.22h-9.85ZM173.73 81.38 163 88.28 157.88 80l12.45-4.76-11.21-5.54 4.88-8.25 10.53 8-.68-12.12h10l-2 12.8 10.75-6.91 5.21 8.38-12.65 4.8 11.32 5.32-5.09 8.28-10.53-7.92.79 12.22h-9.85Z" class="cls-2"/><path d="M233.58 148.16H0V0h233.58ZM10.63 137.52H223V10.63H10.63Z" class="cls-2"/></g></g></svg>