<svg xmlns="http://www.w3.org/2000/svg" xml:space="preserve" width="1280" height="720" viewBox="0 0 320 180"><path d="M84.15 54.268h135.705v76.334H84.15z" style="fill:#1a2339;fill-opacity:1;stroke-width:.296956" transform="translate(-198.43 -127.966)scale(2.35806)"/><g style="fill:#fff;fill-opacity:1"><path d="M15.906 0v-4.297H7.328l8.578-11.172v-3.64H1.828v4.297h8L1.36-3.626V0Zm0 0" style="stroke:none" transform="translate(28.38 98.312)scale(.78602)"/><path d="M17.125 0v-12.578c0-4.469-2.797-6.75-8.14-6.75-3.188 0-5.032.594-6.891 2.64l3.031 2.97c1-1.141 1.844-1.579 3.672-1.579 2.531 0 3.562.922 3.562 3.016v.953H7.844c-4.438 0-6.531 2.484-6.531 5.531 0 1.688.562 3.234 1.578 4.297C4.03-.36 5.609.188 7.766.188c2.203 0 3.422-.547 4.703-1.844V0Zm-4.766-7.047c0 1.172-.187 1.953-.703 2.422-.844.813-1.687.922-3 .922-1.875 0-2.75-.875-2.75-2.203 0-1.36.953-2.157 2.672-2.157h3.781zm0 0" style="stroke:none" transform="translate(42.155 98.312)scale(.78602)"/><path d="M18.328 0v-19.11h-4.765v11.563c0 2.594-1.688 3.469-3.188 3.469s-3.156-.875-3.156-3.469v-11.562H2.453v12.218c0 2.094.406 3.891 1.953 5.422C5.47-.406 7 .22 8.906.22c1.766 0 3.516-.656 4.766-1.985V0Zm0 0" style="stroke:none" transform="translate(57.542 98.312)scale(.78602)"/><path d="M11.547-14.922v-3.64H8.03v-2.079c0-1.109.516-1.734 1.64-1.734h1.876v-4.031H8.828c-3.875 0-5.562 2.75-5.562 5.468v2.375H1.28v3.641h1.985V0H8.03v-14.922zm0 0" style="stroke:none" transform="translate(74.054 98.312)scale(.78602)"/></g><g style="fill:#fff;fill-opacity:1"><path d="M17.125 0v-12.578c0-4.469-2.797-6.75-8.14-6.75-3.188 0-5.032.594-6.891 2.64l3.031 2.97c1-1.141 1.844-1.579 3.672-1.579 2.531 0 3.562.922 3.562 3.016v.953H7.844c-4.438 0-6.531 2.484-6.531 5.531 0 1.688.562 3.234 1.578 4.297C4.03-.36 5.609.188 7.766.188c2.203 0 3.422-.547 4.703-1.844V0Zm-4.766-7.047c0 1.172-.187 1.953-.703 2.422-.844.813-1.687.922-3 .922-1.875 0-2.75-.875-2.75-2.203 0-1.36.953-2.157 2.672-2.157h3.781zm0 0" style="stroke:none" transform="translate(83.448 98.312)scale(.78602)"/><path d="M18.547 0v-12.219c0-2.078-.406-3.875-1.938-5.422-1.062-1.062-2.609-1.687-4.515-1.687-1.75 0-3.516.656-4.766 1.984v-1.765H2.672V0h4.765v-11.547c0-2.61 1.688-3.484 3.188-3.484 1.516 0 3.156.875 3.156 3.484V0Zm0 0" style="stroke:none" transform="translate(98.835 98.312)scale(.78602)"/><path d="M17.125 0v-12.578c0-4.469-2.797-6.75-8.14-6.75-3.188 0-5.032.594-6.891 2.64l3.031 2.97c1-1.141 1.844-1.579 3.672-1.579 2.531 0 3.562.922 3.562 3.016v.953H7.844c-4.438 0-6.531 2.484-6.531 5.531 0 1.688.562 3.234 1.578 4.297C4.03-.36 5.609.188 7.766.188c2.203 0 3.422-.547 4.703-1.844V0Zm-4.766-7.047c0 1.172-.187 1.953-.703 2.422-.844.813-1.687.922-3 .922-1.875 0-2.75-.875-2.75-2.203 0-1.36.953-2.157 2.672-2.157h3.781zm0 0" style="stroke:none" transform="translate(115.347 98.312)scale(.78602)"/></g><g style="fill:#fff;fill-opacity:1"><path d="M17.047-6.016c0-3.218-1.906-5.25-5.688-5.609l-3-.297c-1.687-.14-1.984-.953-1.984-1.64 0-.954.813-1.844 2.719-1.844 1.64 0 3.328.297 4.437 1.281l2.922-2.969c-1.828-1.718-4.312-2.234-7.297-2.234-3.875 0-7.36 2.125-7.36 6.094 0 3.515 2.126 5.015 5.579 5.343l3 .297c1.5.157 2.016.813 2.016 1.766 0 1.422-1.72 1.984-3.375 1.984-1.47 0-3.516-.234-5.094-1.797L.812-2.53C3.22-.11 5.939.219 8.939.219c4.515 0 8.109-2.016 8.109-6.235m0 0" style="stroke:none" transform="translate(208.422 98.312)scale(.78602)"/></g><g style="fill:#fff;fill-opacity:1"><path d="M11.25 0v-4.031H9.531c-1.14 0-1.656-.625-1.656-1.719v-9.172h3.375v-3.64H7.875v-5.641H3.109v5.64H1.094v3.641h2.015v9.453C3.11-2.75 4.766 0 8.656 0Zm0 0" style="stroke:none" transform="translate(222.57 98.312)scale(.78602)"/><path d="M16.64-17.531c-1.312-1.313-2.64-1.797-4.5-1.797-2.062 0-3.89.953-4.812 2.062v-1.843H2.672V0h4.765v-11.516c0-2.421 1.61-3.515 3.079-3.515 1.172 0 1.797.406 2.53 1.125zm0 0" style="stroke:none" transform="translate(232.714 98.312)scale(.78602)"/></g><g style="fill:#fff;fill-opacity:1"><path d="M18.031-9.578c0-3.438-.437-5.61-2.156-7.406-1.172-1.235-3.125-2.344-5.937-2.344-2.829 0-4.735 1.11-5.907 2.344-1.718 1.797-2.156 3.968-2.156 7.406 0 3.484.438 5.656 2.156 7.453C5.203-.875 7.11.219 9.938.219c2.812 0 4.765-1.094 5.937-2.344 1.719-1.797 2.156-3.969 2.156-7.453m-4.765 0c0 1.984-.11 3.672-1.094 4.672-.547.547-1.281.828-2.235.828-.953 0-1.656-.281-2.203-.828-.984-1-1.093-2.688-1.093-4.672 0-1.969.109-3.625 1.093-4.61.547-.546 1.25-.843 2.204-.843.953 0 1.687.297 2.234.844.984.984 1.094 2.64 1.094 4.609m0 0" style="stroke:none" transform="translate(244.932 98.312)scale(.78602)"/><path d="M18.547 0v-12.219c0-2.078-.406-3.875-1.938-5.422-1.062-1.062-2.609-1.687-4.515-1.687-1.75 0-3.516.656-4.766 1.984v-1.765H2.672V0h4.765v-11.547c0-2.61 1.688-3.484 3.188-3.484 1.516 0 3.156.875 3.156 3.484V0Zm0 0" style="stroke:none" transform="translate(260.579 98.312)scale(.78602)"/><path d="M17.125 0v-12.578c0-4.469-2.797-6.75-8.14-6.75-3.188 0-5.032.594-6.891 2.64l3.031 2.97c1-1.141 1.844-1.579 3.672-1.579 2.531 0 3.562.922 3.562 3.016v.953H7.844c-4.438 0-6.531 2.484-6.531 5.531 0 1.688.562 3.234 1.578 4.297C4.03-.36 5.609.188 7.766.188c2.203 0 3.422-.547 4.703-1.844V0Zm-4.766-7.047c0 1.172-.187 1.953-.703 2.422-.844.813-1.687.922-3 .922-1.875 0-2.75-.875-2.75-2.203 0-1.36.953-2.157 2.672-2.157h3.781zm0 0" style="stroke:none" transform="translate(277.09 98.312)scale(.78602)"/></g><path d="m149.373 93.222-1.161.746-.55-.892 1.344-.514-1.21-.599.526-.892 1.136.867-.073-1.307h1.075l-.22 1.382 1.162-.746.56.905-1.355.513 1.222.574-.55.893-1.136-.855.086 1.32h-1.064zm6.211 0-1.161.746-.55-.892 1.344-.514-1.21-.599.526-.892 1.136.867-.073-1.307h1.075l-.22 1.382 1.162-.746.56.905-1.355.513 1.222.574-.55.893-1.136-.855.084 1.32h-1.062zm6.21 0-1.16.746-.551-.892 1.345-.514-1.21-.599.525-.892 1.137.867-.073-1.307h1.075l-.22 1.382 1.16-.746.563.905-1.357.513 1.223.574-.551.893-1.136-.855.085 1.32h-1.062zm0 0" style="fill:#fa4559;fill-opacity:1;fill-rule:nonzero;stroke:none;stroke-width:.333333" transform="translate(-198.43 -127.966)scale(2.35806)"/><path d="M143.042 100.435h25.213v-16h-25.213zm1.149-14.852h22.915v13.703h-22.915zm0 0" style="fill:#fa4559;fill-opacity:1;fill-rule:nonzero;stroke:none;stroke-width:.333333" transform="translate(-198.43 -127.966)scale(2.35806)"/></svg>