<svg xmlns="http://www.w3.org/2000/svg" width="1280" height="670" viewBox="0 0 320 167.5"><path d="M116.511 85.103v-2.79l6.468-8.604h-6.104v-3.3h10.748v2.795l-6.549 8.6h6.55v3.3zm21.775-6.206H135.4c-1.314 0-2.042.62-2.042 1.665 0 1.014.672 1.69 2.097 1.69 1.006 0 1.653-.08 2.295-.701.393-.369.535-.96.535-1.862zm.08 6.206v-1.271c-.98.989-1.904 1.413-3.582 1.413-1.652 0-2.855-.424-3.72-1.297-.783-.818-1.206-2.004-1.206-3.3 0-2.342 1.596-4.26 4.982-4.26h3.446v-.732c0-1.609-.784-2.315-2.718-2.315-1.4 0-2.042.338-2.8 1.215l-2.32-2.285c1.43-1.58 2.825-2.03 5.26-2.03 4.089 0 6.216 1.747 6.216 5.189v9.673zm15.868 0v-1.352c-.95 1.014-2.294 1.52-3.638 1.52-1.455 0-2.632-.48-3.441-1.298-1.177-1.181-1.486-2.564-1.486-4.173v-9.391h3.639v8.886c0 1.999 1.258 2.68 2.405 2.68 1.152 0 2.436-.681 2.436-2.68v-8.886h3.638v14.694zm11.724-11.48v11.48h-3.638v-11.48h-1.51v-2.79h1.51V69c0-2.09 1.288-4.204 4.255-4.204h2.071V67.9h-1.43c-.864 0-1.258.48-1.258 1.323v1.61h2.688v2.79zm12.426 5.274h-2.88c-1.319 0-2.046.62-2.046 1.665 0 1.014.672 1.69 2.101 1.69 1.006 0 1.648-.08 2.295-.701.389-.369.53-.96.53-1.862zm.081 6.206v-1.271c-.976.989-1.9 1.413-3.578 1.413-1.652 0-2.855-.424-3.724-1.297-.783-.818-1.203-2.004-1.203-3.3 0-2.342 1.597-4.26 4.983-4.26h3.441v-.732c0-1.609-.783-2.315-2.714-2.315-1.4 0-2.041.338-2.8 1.215l-2.323-2.285c1.43-1.58 2.829-2.03 5.265-2.03 4.083 0 6.21 1.747 6.21 5.189v9.673zm15.954 0v-8.886c0-1.999-1.259-2.68-2.406-2.68-1.151 0-2.436.681-2.436 2.68v8.886h-3.638V70.41h3.553v1.352c.95-1.014 2.294-1.52 3.638-1.52 1.455 0 2.633.48 3.442 1.298 1.177 1.181 1.485 2.564 1.485 4.173v9.391zm14.942-6.206h-2.88c-1.319 0-2.046.62-2.046 1.665 0 1.014.672 1.69 2.101 1.69 1.006 0 1.648-.08 2.295-.701.39-.369.53-.96.53-1.862zm.082 6.206v-1.271c-.976.989-1.901 1.413-3.579 1.413-1.652 0-2.855-.424-3.724-1.297-.783-.818-1.203-2.004-1.203-3.3 0-2.342 1.597-4.26 4.983-4.26h3.441v-.732c0-1.609-.783-2.315-2.714-2.315-1.4 0-2.046.338-2.799 1.215l-2.324-2.285c1.43-1.58 2.83-2.03 5.26-2.03 4.088 0 6.216 1.747 6.216 5.189v9.673zm-88.125 27.677c-2.966 0-4.224-2.114-4.224-4.203V101.3h-1.541v-2.79h1.54v-4.34h3.639v4.34h2.572v2.79h-2.572v7.054c0 .843.39 1.323 1.258 1.323h1.314v3.103zm13.21-10.688c-.561-.565-1.036-.873-1.935-.873-1.117 0-2.35.843-2.35 2.705v8.856h-3.638V98.086h3.557v1.412c.697-.847 2.097-1.58 3.664-1.58 1.43 0 2.435.369 3.441 1.383zm3.805 10.688v-2.79l6.463-8.604h-6.1v-3.3h10.744v2.795l-6.549 8.599h6.55v3.3zm22.442-10.294c-.394-.873-1.203-1.524-2.436-1.524s-2.041.65-2.435 1.524c-.223.535-.308.933-.334 1.58h5.539c-.027-.647-.111-1.045-.334-1.58m-5.205 4.088c0 1.892 1.147 3.274 3.189 3.274 1.596 0 2.38-.454 3.304-1.382l2.209 2.17c-1.481 1.498-2.91 2.315-5.539 2.315-3.446 0-6.746-1.58-6.746-7.533 0-4.794 2.573-7.5 6.352-7.5 4.058 0 6.352 2.988 6.352 7.02v1.636zm18.273 6.377c-2.91 0-6.523-1.58-6.523-7.533 0-5.95 3.612-7.5 6.523-7.5 2.016 0 3.527.621 4.81 1.974l-2.46 2.483c-.754-.818-1.4-1.156-2.35-1.156-.87 0-1.541.308-2.072.959-.56.702-.809 1.69-.809 3.24 0 1.554.248 2.568.81 3.274.53.647 1.202.96 2.07.96.951 0 1.597-.339 2.35-1.156l2.462 2.452c-1.284 1.353-2.795 2.003-4.811 2.003m7.636-14.865h3.643v14.694h-3.643Zm-.056-5.496h3.724v2.987h-3.724zm15.14 13.988h-2.88c-1.319 0-2.042.62-2.042 1.66 0 1.02.667 1.696 2.097 1.696 1.006 0 1.652-.086 2.294-.707.394-.368.531-.958.531-1.862zm.086 6.202v-1.267c-.98.985-1.905 1.408-3.583 1.408-1.652 0-2.855-.423-3.724-1.297-.783-.817-1.203-2.003-1.203-3.3 0-2.341 1.597-4.259 4.983-4.259h3.44v-.732c0-1.61-.782-2.315-2.713-2.315-1.4 0-2.042.342-2.8 1.215l-2.32-2.285c1.426-1.58 2.826-2.03 5.261-2.03 4.084 0 6.211 1.747 6.211 5.189v9.673zm21.919.171c-2.294 0-4.366-.256-6.215-2.118l2.38-2.397c1.207 1.215 2.774 1.382 3.891 1.382 1.258 0 2.577-.424 2.577-1.52 0-.736-.394-1.24-1.541-1.356l-2.294-.223c-2.633-.257-4.255-1.412-4.255-4.118 0-3.047 2.658-4.682 5.624-4.682 2.269 0 4.17.394 5.573 1.72l-2.243 2.282c-.838-.758-2.127-.985-3.385-.985-1.456 0-2.072.677-2.072 1.409 0 .535.227 1.155 1.511 1.27l2.299.223c2.88.283 4.336 1.837 4.336 4.32 0 3.24-2.744 4.793-6.186 4.793m13.518-.171c-2.966 0-4.225-2.114-4.225-4.203V101.3h-1.54v-2.79h1.54v-4.34h3.634v4.34h2.577v2.79h-2.577v7.054c0 .843.394 1.323 1.263 1.323h1.314v3.103zm13.204-10.688c-.556-.565-1.03-.873-1.93-.873-1.117 0-2.35.843-2.35 2.705v8.856h-3.638V98.086h3.553v1.412c.702-.847 2.101-1.58 3.668-1.58 1.43 0 2.436.369 3.441 1.383zm11.198-.227c-.423-.424-.98-.646-1.712-.646-.723 0-1.258.222-1.674.646-.757.762-.843 2.033-.843 3.553 0 1.524.086 2.82.843 3.583.416.423.95.65 1.674.65.732 0 1.289-.227 1.712-.65.754-.762.84-2.06.84-3.583 0-1.52-.086-2.79-.84-3.553m2.825 9.28c-.894.959-2.38 1.806-4.537 1.806-2.153 0-3.608-.847-4.503-1.806-1.314-1.382-1.652-3.048-1.652-5.727 0-2.65.338-4.315 1.652-5.693.895-.963 2.35-1.806 4.503-1.806 2.157 0 3.643.843 4.537 1.806 1.314 1.378 1.652 3.043 1.652 5.693 0 2.68-.338 4.345-1.652 5.727m13.599 1.635v-8.882c0-2.003-1.258-2.68-2.405-2.68-1.148 0-2.436.677-2.436 2.68v8.882h-3.638V98.086h3.552v1.357c.955-1.02 2.299-1.524 3.639-1.524 1.455 0 2.632.48 3.445 1.297 1.173 1.185 1.481 2.564 1.481 4.173v9.391zm14.943-6.202h-2.88c-1.32 0-2.047.62-2.047 1.66 0 1.02.672 1.696 2.102 1.696 1.006 0 1.648-.086 2.294-.707.39-.368.53-.958.53-1.862zm.085 6.202v-1.267c-.98.985-1.904 1.408-3.582 1.408-1.652 0-2.855-.423-3.724-1.297-.784-.817-1.203-2.003-1.203-3.3 0-2.341 1.597-4.259 4.982-4.259h3.442v-.732c0-1.61-.784-2.315-2.714-2.315-1.4 0-2.042.342-2.8 1.215l-2.324-2.285c1.43-1.58 2.83-2.03 5.26-2.03 4.089 0 6.216 1.747 6.216 5.189v9.673zm0 0" style="fill:#232e4a;fill-opacity:1;fill-rule:nonzero;stroke:none;stroke-width:1.09577"/><path d="m47.148 93.814-3.42 2.213-1.618-2.65 3.96-1.524-3.562-1.776 1.545-2.645 3.348 2.572-.214-3.878h3.163l-.647 4.097 3.42-2.213 1.657 2.683-3.998 1.524 3.6 1.704-1.618 2.65-3.347-2.543.252 3.92h-3.133zm18.29 0-3.42 2.213-1.618-2.65 3.955-1.524-3.561-1.776 1.55-2.645 3.347 2.572-.219-3.878h3.168l-.647 4.097 3.416-2.213 1.657 2.683-3.994 1.524 3.596 1.704-1.618 2.65-3.348-2.543.253 3.92h-3.13zm18.286 0-3.416 2.213-1.622-2.65 3.96-1.524-3.562-1.776 1.545-2.645 3.347 2.572-.214-3.878h3.164l-.647 4.097 3.42-2.213 1.657 2.683-3.994 1.524 3.596 1.704-1.618 2.65-3.348-2.543.253 3.92h-3.133zm0 0" style="fill:#fa4559;fill-opacity:1;fill-rule:nonzero;stroke:none;stroke-width:1.09577"/><path d="M31.888 111.796h67.48V71.154h-67.48Zm70.862 3.407H28.507V67.746h74.243zm0 0" style="fill:#fa4559;fill-opacity:1;fill-rule:nonzero;stroke:none;stroke-width:1.09577"/></svg>