<svg xmlns="http://www.w3.org/2000/svg" width="960" height="720" viewBox="0 0 240 180"><g style="fill:#232e4a;fill-opacity:1"><g style="fill:#232e4a;fill-opacity:1"><path d="M12.844 0v-3.469H5.922l6.922-9.031v-2.937H1.484v3.468h6.454L1.093-2.937V0Zm0 0" style="stroke:none;fill:#232e4a;fill-opacity:1" transform="translate(63.497 97.544)scale(1.09804)"/></g><g style="fill:#232e4a;fill-opacity:1"><path d="M13.828 0v-10.156c0-3.625-2.25-5.453-6.578-5.453-2.578 0-4.047.468-5.562 2.125l2.453 2.406C4.938-12 5.625-12.36 7.109-12.36c2.047 0 2.875.75 2.875 2.437v.766h-3.64c-3.594 0-5.281 2.015-5.281 4.469 0 1.375.453 2.609 1.28 3.468C3.25-.298 4.531.14 6.281.14c1.766 0 2.75-.438 3.782-1.47V0ZM9.984-5.687c0 .953-.156 1.562-.562 1.953-.688.656-1.375.75-2.438.75-1.5 0-2.218-.72-2.218-1.782 0-1.093.765-1.75 2.156-1.75h3.062zm0 0" style="stroke:none;fill:#232e4a;fill-opacity:1" transform="translate(79.041 97.544)scale(1.09804)"/></g><g style="fill:#232e4a;fill-opacity:1"><path d="M14.813 0v-15.437h-3.86v9.328c0 2.109-1.36 2.828-2.578 2.828-1.203 0-2.547-.719-2.547-2.828v-9.328H1.984v9.875c0 1.687.329 3.14 1.563 4.375.86.859 2.11 1.359 3.64 1.359 1.422 0 2.844-.531 3.86-1.594V0Zm0 0" style="stroke:none;fill:#232e4a;fill-opacity:1" transform="translate(96.406 97.544)scale(1.09804)"/></g><g style="fill:#232e4a;fill-opacity:1"><path d="M9.328-12.062v-2.922H6.484v-1.688c0-.89.422-1.406 1.329-1.406h1.515v-3.25H7.141c-3.141 0-4.5 2.219-4.5 4.406v1.938H1.03v2.922h1.61V0h3.843v-12.062zm0 0" style="stroke:none;fill:#232e4a;fill-opacity:1" transform="translate(115.04 97.544)scale(1.09804)"/></g></g><g style="fill:#232e4a;fill-opacity:1"><g style="fill:#232e4a;fill-opacity:1"><path d="M13.828 0v-10.156c0-3.625-2.25-5.453-6.578-5.453-2.578 0-4.047.468-5.562 2.125l2.453 2.406C4.938-12 5.625-12.36 7.109-12.36c2.047 0 2.875.75 2.875 2.437v.766h-3.64c-3.594 0-5.281 2.015-5.281 4.469 0 1.375.453 2.609 1.28 3.468C3.25-.298 4.531.14 6.281.14c1.766 0 2.75-.438 3.782-1.47V0ZM9.984-5.687c0 .953-.156 1.562-.562 1.953-.688.656-1.375.75-2.438.75-1.5 0-2.218-.72-2.218-1.782 0-1.093.765-1.75 2.156-1.75h3.062zm0 0" style="stroke:none;fill:#232e4a;fill-opacity:1" transform="translate(125.64 97.544)scale(1.09804)"/></g><g style="fill:#232e4a;fill-opacity:1"><path d="M14.984 0v-9.86c0-1.687-.328-3.14-1.578-4.39-.86-.86-2.094-1.36-3.64-1.36-1.422 0-2.844.532-3.844 1.594v-1.421H2.156V0h3.86v-9.328c0-2.11 1.359-2.813 2.578-2.813 1.203 0 2.547.704 2.547 2.813V0Zm0 0" style="stroke:none;fill:#232e4a;fill-opacity:1" transform="translate(143.006 97.544)scale(1.09804)"/></g><g style="fill:#232e4a;fill-opacity:1"><path d="M13.828 0v-10.156c0-3.625-2.25-5.453-6.578-5.453-2.578 0-4.047.468-5.562 2.125l2.453 2.406C4.938-12 5.625-12.36 7.109-12.36c2.047 0 2.875.75 2.875 2.437v.766h-3.64c-3.594 0-5.281 2.015-5.281 4.469 0 1.375.453 2.609 1.28 3.468C3.25-.298 4.531.14 6.281.14c1.766 0 2.75-.438 3.782-1.47V0ZM9.984-5.687c0 .953-.156 1.562-.562 1.953-.688.656-1.375.75-2.438.75-1.5 0-2.218-.72-2.218-1.782 0-1.093.765-1.75 2.156-1.75h3.062zm0 0" style="stroke:none;fill:#232e4a;fill-opacity:1" transform="translate(161.64 97.544)scale(1.09804)"/></g></g><g style="fill:#232e4a;fill-opacity:1"><g style="fill:#232e4a;fill-opacity:1"><path d="M9.094 0v-3.266h-1.39c-.923 0-1.345-.5-1.345-1.39v-7.406h2.735v-2.922H6.359v-4.563H2.516v4.563H.89v2.922h1.625v7.64C2.516-2.219 3.844 0 6.984 0Zm0 0" style="stroke:none;fill:#232e4a;fill-opacity:1" transform="translate(62.62 130.603)scale(1.09804)"/></g><g style="fill:#232e4a;fill-opacity:1"><path d="M13.438-14.156c-1.063-1.078-2.126-1.453-3.641-1.453-1.656 0-3.14.765-3.875 1.656v-1.485H2.156V0h3.86v-9.297c0-1.953 1.297-2.844 2.484-2.844.953 0 1.453.313 2.047.907zm0 0" style="stroke:none;fill:#232e4a;fill-opacity:1" transform="translate(74.066 130.603)scale(1.09804)"/></g><g style="fill:#232e4a;fill-opacity:1"><path d="M12.844 0v-3.469H5.922l6.922-9.031v-2.937H1.484v3.468h6.454L1.093-2.937V0Zm0 0" style="stroke:none;fill:#232e4a;fill-opacity:1" transform="translate(88.862 130.603)scale(1.09804)"/></g><g style="fill:#232e4a;fill-opacity:1"><path d="M14.828-6.516v-1.718c0-4.235-2.422-7.375-6.719-7.375-4 0-6.718 2.843-6.718 7.875 0 6.25 3.5 7.906 7.14 7.906 2.781 0 4.297-.86 5.86-2.422l-2.344-2.281c-.969.968-1.797 1.453-3.485 1.453-2.171 0-3.374-1.453-3.374-3.438zm-3.781-2.64h-5.86c.032-.672.11-1.094.344-1.656.422-.922 1.282-1.594 2.578-1.594 1.313 0 2.172.672 2.579 1.594.234.562.328.984.359 1.656m0 0" style="stroke:none;fill:#232e4a;fill-opacity:1" transform="translate(104.406 130.603)scale(1.09804)"/></g><g style="fill:#232e4a;fill-opacity:1"><path d="M13.39-1.922 10.782-4.5c-.797.86-1.484 1.219-2.484 1.219-.922 0-1.64-.328-2.203-1.016-.594-.734-.86-1.812-.86-3.437s.266-2.657.86-3.407c.562-.687 1.281-1 2.203-1 1 0 1.687.344 2.484 1.204l2.61-2.594c-1.375-1.422-2.97-2.078-5.094-2.078-3.078 0-6.906 1.625-6.906 7.875S5.219.172 8.297.172c2.125 0 3.719-.672 5.094-2.094m0 0" style="stroke:none;fill:#232e4a;fill-opacity:1" transform="translate(122.226 130.603)scale(1.09804)"/></g><g style="fill:#232e4a;fill-opacity:1"><path d="M6.016 0v-15.437h-3.86V0Zm.03-18.078v-3.14H2.11v3.14zm0 0" style="stroke:none;fill:#232e4a;fill-opacity:1" transform="translate(137.835 130.603)scale(1.09804)"/></g><g style="fill:#232e4a;fill-opacity:1"><path d="M13.828 0v-10.156c0-3.625-2.25-5.453-6.578-5.453-2.578 0-4.047.468-5.562 2.125l2.453 2.406C4.938-12 5.625-12.36 7.109-12.36c2.047 0 2.875.75 2.875 2.437v.766h-3.64c-3.594 0-5.281 2.015-5.281 4.469 0 1.375.453 2.609 1.28 3.468C3.25-.298 4.531.14 6.281.14c1.766 0 2.75-.438 3.782-1.47V0ZM9.984-5.687c0 .953-.156 1.562-.562 1.953-.688.656-1.375.75-2.438.75-1.5 0-2.218-.72-2.218-1.782 0-1.093.765-1.75 2.156-1.75h3.062zm0 0" style="stroke:none;fill:#232e4a;fill-opacity:1" transform="translate(146.778 130.603)scale(1.09804)"/></g></g><g style="fill:#232e4a;fill-opacity:1"><path d="M13.766-4.86c0-2.609-1.532-4.234-4.594-4.53L6.75-9.626c-1.36-.125-1.594-.766-1.594-1.344 0-.765.64-1.469 2.188-1.469 1.328 0 2.687.235 3.578 1.032l2.375-2.406c-1.485-1.391-3.5-1.797-5.89-1.797-3.141 0-5.954 1.718-5.954 4.922 0 2.843 1.719 4.046 4.5 4.312l2.422.25c1.219.11 1.64.64 1.64 1.422 0 1.14-1.406 1.594-2.734 1.594-1.187 0-2.843-.172-4.11-1.453L.657-2.047C2.61-.094 4.796.172 7.22.172c3.64 0 6.547-1.625 6.547-5.031m0 0" style="stroke:none;fill:#232e4a;fill-opacity:1" transform="translate(63.757 162.36)scale(1.09804)"/></g><g style="fill:#232e4a;fill-opacity:1"><g style="fill:#232e4a;fill-opacity:1"><path d="M9.094 0v-3.266h-1.39c-.923 0-1.345-.5-1.345-1.39v-7.406h2.735v-2.922H6.359v-4.563H2.516v4.563H.89v2.922h1.625v7.64C2.516-2.219 3.844 0 6.984 0Zm0 0" style="stroke:none;fill:#232e4a;fill-opacity:1" transform="translate(79.724 162.36)scale(1.09804)"/></g><g style="fill:#232e4a;fill-opacity:1"><path d="M13.438-14.156c-1.063-1.078-2.126-1.453-3.641-1.453-1.656 0-3.14.765-3.875 1.656v-1.485H2.156V0h3.86v-9.297c0-1.953 1.297-2.844 2.484-2.844.953 0 1.453.313 2.047.907zm0 0" style="stroke:none;fill:#232e4a;fill-opacity:1" transform="translate(91.17 162.36)scale(1.09804)"/></g></g><g style="fill:#232e4a;fill-opacity:1"><g style="fill:#232e4a;fill-opacity:1"><path d="M14.563-7.734c0-2.782-.344-4.532-1.735-5.985-.953-1-2.531-1.89-4.797-1.89-2.281 0-3.828.89-4.781 1.89-1.39 1.453-1.734 3.203-1.734 5.985 0 2.812.343 4.562 1.734 6.015.953 1 2.5 1.89 4.781 1.89 2.266 0 3.844-.89 4.797-1.89 1.39-1.453 1.735-3.203 1.735-6.015m-3.844 0c0 1.609-.094 2.968-.89 3.765-.438.438-1.032.688-1.798.688-.781 0-1.344-.25-1.781-.688-.797-.797-.89-2.156-.89-3.765 0-1.594.093-2.938.89-3.735.438-.437 1-.672 1.781-.672.766 0 1.36.235 1.797.672.797.797.89 2.14.89 3.735m0 0" style="stroke:none;fill:#232e4a;fill-opacity:1" transform="translate(104.959 162.36)scale(1.09804)"/></g><g style="fill:#232e4a;fill-opacity:1"><path d="M14.984 0v-9.86c0-1.687-.328-3.14-1.578-4.39-.86-.86-2.094-1.36-3.64-1.36-1.422 0-2.844.532-3.844 1.594v-1.421H2.156V0h3.86v-9.328c0-2.11 1.359-2.813 2.578-2.813 1.203 0 2.547.704 2.547 2.813V0Zm0 0" style="stroke:none;fill:#232e4a;fill-opacity:1" transform="translate(122.617 162.36)scale(1.09804)"/></g><g style="fill:#232e4a;fill-opacity:1"><path d="M13.828 0v-10.156c0-3.625-2.25-5.453-6.578-5.453-2.578 0-4.047.468-5.562 2.125l2.453 2.406C4.938-12 5.625-12.36 7.109-12.36c2.047 0 2.875.75 2.875 2.437v.766h-3.64c-3.594 0-5.281 2.015-5.281 4.469 0 1.375.453 2.609 1.28 3.468C3.25-.298 4.531.14 6.281.14c1.766 0 2.75-.438 3.782-1.47V0ZM9.984-5.687c0 .953-.156 1.562-.562 1.953-.688.656-1.375.75-2.438.75-1.5 0-2.218-.72-2.218-1.782 0-1.093.765-1.75 2.156-1.75h3.062zm0 0" style="stroke:none;fill:#232e4a;fill-opacity:1" transform="translate(141.25 162.36)scale(1.09804)"/></g></g><path d="m80.617 41.66-3.2 2.055-1.514-2.458 3.702-1.416-3.333-1.651 1.45-2.458 3.13 2.394-.2-3.608h2.959l-.605 3.81 3.195-2.055 1.549 2.492-3.736 1.415 3.367 1.583-1.514 2.458-3.131-2.36.236 3.638h-2.93zm17.105 0-3.195 2.055-1.519-2.458 3.706-1.416-3.333-1.651 1.446-2.458 3.131 2.394-.202-3.608h2.96l-.605 3.81 3.2-2.055 1.548 2.492-3.735 1.415 3.367 1.583-1.519 2.458-3.13-2.36.235 3.638h-2.925zm17.106 0-3.196 2.055-1.514-2.458 3.702-1.416-3.333-1.651 1.45-2.458 3.126 2.394-.201-3.608h2.964l-.605 3.81 3.195-2.055 1.549 2.492-3.736 1.415 3.367 1.583-1.514 2.458-3.131-2.36.236 3.638h-2.93zm0 0" style="fill:#fa4559;fill-opacity:1;fill-rule:nonzero;stroke:none;stroke-width:1.09804"/><path d="M63.177 61.528h69.447V17.452H63.177Zm3.16-40.915h63.125v37.75H66.338Zm0 0" style="fill:#fa4559;fill-opacity:1;fill-rule:nonzero;stroke:none;stroke-width:1.09804"/></svg>